<?xml version="1.0" standalone="no"?>
<!DOCTYPE svg PUBLIC "-//W3C//DTD SVG 20010904//EN"
 "http://www.w3.org/TR/2001/REC-SVG-20010904/DTD/svg10.dtd">
<svg version="1.0" xmlns="http://www.w3.org/2000/svg"
 width="300.000000pt" height="300.000000pt" viewBox="0 0 300.000000 300.000000"
 preserveAspectRatio="xMidYMid meet">
<metadata>
Created by potrace 1.11, written by Peter Selinger 2001-2013
</metadata>
<g transform="translate(0.000000,300.000000) scale(0.100000,-0.100000)"
fill="#000000" stroke="none">
<path d="M1659 2352 c-18 -13 -19 -45 -19 -833 0 -518 4 -827 10 -839 9 -16
23 -18 132 -18 98 1 127 4 141 17 17 14 18 36 16 331 -1 174 1 322 5 328 10
17 266 17 289 0 9 -7 21 -35 28 -63 6 -27 22 -78 35 -113 13 -34 24 -71 24
-83 0 -11 9 -37 20 -58 11 -22 22 -59 26 -83 4 -23 14 -56 24 -73 10 -16 21
-50 25 -75 8 -51 26 -90 50 -110 11 -9 55 -14 148 -16 170 -3 196 10 143 73
-14 16 -32 58 -41 93 -9 35 -23 73 -31 84 -8 11 -14 31 -14 43 0 13 -9 49 -21
81 -11 31 -26 77 -31 101 -6 24 -19 58 -29 75 -10 17 -19 41 -19 53 0 13 -9
46 -20 75 -11 29 -27 80 -36 114 l-15 61 36 106 c19 58 35 114 35 124 0 10 9
36 19 57 11 21 24 60 30 87 6 28 17 62 25 77 7 15 16 47 20 72 4 25 14 55 22
67 8 12 19 46 25 75 6 29 22 70 36 90 14 20 23 47 21 60 -3 23 -5 23 -133 26
-71 1 -140 0 -152 -3 -28 -7 -56 -61 -72 -134 -6 -30 -15 -59 -20 -65 -5 -6
-16 -40 -25 -75 -9 -36 -21 -70 -26 -76 -6 -7 -15 -37 -20 -67 -6 -30 -19 -72
-30 -93 -11 -22 -20 -48 -20 -58 0 -28 -48 -124 -66 -131 -9 -3 -66 -6 -129
-6 -86 0 -115 3 -124 14 -9 11 -12 101 -12 338 1 191 -3 329 -9 338 -13 21
-244 31 -271 12z"/>
<path d="M276 2341 c-15 -17 -16 -84 -16 -832 0 -658 3 -816 13 -827 11 -10
120 -13 541 -14 316 0 531 3 537 9 14 14 13 1652 -2 1669 -9 12 -102 14 -534
14 -495 0 -523 -1 -539 -19z m724 -296 c19 -4 41 -12 48 -17 9 -8 12 -124 12
-517 0 -278 -4 -511 -8 -518 -5 -8 -69 -12 -222 -13 -266 -2 -246 -3 -264 16
-14 14 -16 75 -16 519 l0 503 25 19 c23 16 45 18 208 17 100 -1 198 -5 217 -9z"/>
</g>
</svg>
